<?xml version="1.0" encoding="UTF-8"?>
<svg width="280px" height="328px" viewBox="0 0 280 328" version="1.1" xmlns="http://www.w3.org/2000/svg" xmlns:xlink="http://www.w3.org/1999/xlink">
    <!-- Generator: Sketch 40.2 (33826) - http://www.bohemiancoding.com/sketch -->
    <title>image-greety</title>
    <desc>Created with Sketch.</desc>
    <defs>
        <rect id="path-1" x="0" y="0" width="280" height="328"></rect>
        <path d="M1,7.58765263 C1,2.19357808 18.0536708,1.60144663 18.8962846,5.57238284 C19.5428755,8.6195334 17.2603863,19 9.38604603,19 C1.51170575,19 1,8.41206826 1,7.58765263 Z" id="path-3"></path>
    </defs>
    <g id="icons" stroke="none" stroke-width="1" fill="none" fill-rule="evenodd">
        <g id="512---Original-bummer" transform="translate(-116.000000, -92.000000)">
            <g id="image-greety" transform="translate(116.000000, 92.000000)">
                <mask id="mask-2" fill="white">
                    <use xlink:href="#path-1"></use>
                </mask>
                <g id="bounds"></g>
                <path d="M182.805897,101.864722 L177.761617,127.694854 C177.024552,131.429456 173.325324,133.850031 169.612189,133.17227 C165.843426,132.411518 163.381909,128.815235 164.105067,125.039138 L182.921067,28.8108976 C183.449528,25.643402 182.587302,22.2545967 180.431736,19.4605613 C178.23445,16.5973665 174.924614,14.5779152 171.350548,13.9831453 C167.804295,13.3883754 164.021625,14.2321187 160.989927,16.2515701 C157.972135,18.2710214 155.997359,21.244871 155.427178,24.6060126 L129.574299,137.225005 C128.392215,142.39812 123.830761,146.174217 118.490521,146.450855 C112.774796,146.464686 108.143807,143.131209 106.544517,138.220899 L75.3653061,42.0479863 C73.4600644,34.9937384 65.7556565,30.9686676 58.4684547,32.9189596 C51.1951598,34.8969154 46.6337052,42.366119 48.5111332,49.2543846 L75.490468,134.36181 C75.5327236,134.495995 75.5707113,134.630458 75.6045068,134.765055 L80.0762671,148.776968 C81.2292434,152.428579 79.2150078,156.315331 75.5616012,157.477207 C71.8804121,158.61142 68.004745,156.6058 66.8378775,152.968022 L62.3137922,138.791863 C62.2819979,138.703954 62.2518226,138.615058 62.2233106,138.5252 L61.5114477,136.277727 L41.1251185,72.3974455 C40.1666202,68.8564897 37.9440155,66.186941 34.8045862,64.4994542 C31.6234831,62.8257993 27.7755986,62.369348 24.2611048,63.3375781 C20.7882849,64.2643126 17.718312,66.5880649 15.829098,69.7417286 C13.9537752,72.8538968 13.4120153,76.3671889 14.3149485,79.6453393 C14.3149485,79.6453393 43.4788276,167.627368 43.8200268,175.085163 C44.161226,182.542959 43.8200268,243.926323 43.8200268,243.926323 C43.8200268,288.534067 90.4798412,311.484684 98.1627135,313.403749 C105.845586,315.322813 175.287099,313.403749 175.287099,313.403749 C199.346796,313.403749 222.642472,262.931297 239.645398,226.069394 C248.077405,207.811341 255.356436,192.015358 262.246511,182.360721 C266.344438,176.6205 268.164196,167.864933 262.482662,162.193871 C257.176194,156.910101 246.702169,156.619632 241.715199,161.557606 L208.431693,193.882659 C206.849068,195.418518 204.708921,196.047651 202.666853,195.775411 C202.610698,195.776884 202.554422,195.777624 202.498034,195.777624 C202.096384,195.777624 201.667956,195.736128 201.266305,195.653137 C197.638061,194.947712 195.228157,191.337597 195.910963,187.589163 L220.692811,50.7229231 C221.214957,47.5001001 220.384878,44.0421354 218.282906,41.1374451 C216.194323,38.2050911 213.007894,36.1994716 209.607252,35.6047017 C206.153056,34.9546044 202.498034,35.7983477 199.592761,37.7486398 C196.741041,39.7404274 194.853283,42.6312859 194.30436,45.9509319 L182.884092,101.52734 C182.86052,101.641128 182.83443,101.753604 182.805897,101.864722 Z M196.76456,23.7596596 C196.194862,19.2485775 194.410123,14.9190245 191.515515,11.0922868 C187.162663,5.3658974 180.821129,1.56213629 173.672996,0.3587646 C166.524863,-0.761615942 159.223754,0.74605664 153.160357,4.82645491 C146.985705,8.96218062 142.924898,15.2141807 141.784535,21.9226321 L117.614388,127.169244 L88.7159048,38.1059066 C84.8497939,23.9005879 69.6356742,15.6291364 54.8526675,19.5988798 C41.4486768,23.1769165 32.723501,36.4020411 34.4815369,49.6920081 C29.9543133,48.6363289 25.1982023,48.7094399 20.6215895,49.9621709 C13.6064932,51.8709674 7.67491673,56.3524895 3.9103799,62.5906578 C0.0763866736,68.9533127 -1.00713315,76.256534 0.965428582,83.4767642 C0.965428582,83.4767642 28.6629405,161.557606 29.9148557,176.094889 C31.1667709,190.632172 29.9148557,243.870996 29.9148557,243.870996 C29.9148557,301.937138 84.2336064,324.183874 94.3287202,326.73766 C104.423834,329.291447 175.259316,327.18028 175.259316,327.18028 C208.223323,327.18028 231.616239,276.50035 252.286463,231.837279 C260.093362,214.934748 267.455741,198.972783 273.595686,190.369367 C282.583344,177.754712 282.069367,162.152376 272.317689,152.414747 C261.593621,141.722721 242.340307,141.432251 231.977412,151.709322 L212.596263,170.523497 L233.840177,53.2126577 C235.004964,46.1030824 233.291254,38.9381796 229.020368,32.935153 C224.829813,27.070445 218.724722,23.1836927 211.81633,21.980321 C206.695184,21.112301 201.491841,21.7342516 196.76456,23.7596596 Z" id="Combined-Shape" fill="#02051C" mask="url(#mask-2)"></path>
                <g id="mouth" mask="url(#mask-2)">
                    <g transform="translate(127.000000, 267.000000)">
                        <mask id="mask-4" fill="white">
                            <use xlink:href="#path-3"></use>
                        </mask>
                        <use id="Path-2" stroke="none" fill="#02051C" fill-rule="evenodd" transform="translate(10.000000, 11.000000) rotate(-180.000000) translate(-10.000000, -11.000000) " xlink:href="#path-3"></use>
                    </g>
                </g>
                <g id="eye" mask="url(#mask-2)">
                    <g transform="translate(80.000000, 197.000000)" id="Oval">
                        <path d="M19.92669,39.8533801 C33.3654196,41.1283067 40.8333439,34.0556534 39.8533801,19.92669 C38.8734162,5.79772667 30.931897,0 19.92669,0 C8.92148301,0 0,8.92148301 0,19.92669 C0,30.931897 6.48796043,38.5784534 19.92669,39.8533801 Z" fill="#02051C"></path>
                        <path d="M28,32 C30.3196785,32 32,30.3191175 32,28 C32,25.6808825 30.209139,24 28,24 C25.790861,24 24,25.790861 24,28 C24,30.209139 25.6803215,32 28,32 Z" fill="#FFFFFF"></path>
                    </g>
                </g>
                <g id="eye" mask="url(#mask-2)">
                    <g transform="translate(144.000000, 197.000000)" id="Oval">
                        <path d="M19.92669,39.8533801 C33.3654196,41.1283067 40.8333439,34.0556534 39.8533801,19.92669 C38.8734162,5.79772667 30.931897,0 19.92669,0 C8.92148301,0 0,8.92148301 0,19.92669 C0,30.931897 6.48796043,38.5784534 19.92669,39.8533801 Z" fill="#02051C"></path>
                        <path d="M28,32 C30.3196785,32 32,30.3191175 32,28 C32,25.6808825 30.209139,24 28,24 C25.790861,24 24,25.790861 24,28 C24,30.209139 25.6803215,32 28,32 Z" fill="#FFFFFF"></path>
                    </g>
                </g>
            </g>
        </g>
    </g>
</svg>