<?xml version="1.0" encoding="UTF-8"?>
<svg width="280px" height="328px" viewBox="0 0 280 328" version="1.1" xmlns="http://www.w3.org/2000/svg" xmlns:xlink="http://www.w3.org/1999/xlink">
    <!-- Generator: Sketch 40.2 (33826) - http://www.bohemiancoding.com/sketch -->
    <title>image-greety</title>
    <desc>Created with Sketch.</desc>
    <defs>
        <rect id="path-1" x="0" y="0" width="280" height="328"></rect>
        <rect id="path-3" x="0" y="0" width="280" height="328"></rect>
        <path d="M56.0649984,34.2345005 C50.3643088,37.6848246 42.9519755,40 33.5441841,40 C27.4060899,40 22.3864338,38.9947597 18.2824069,37.360821 C22.6654533,34.1627114 28.291956,31.0004561 34.1379384,30.2135177 C41.4453266,29.2298569 50.0445537,31.829803 56.0649984,34.2345005 Z" id="path-5"></path>
        <rect id="path-7" x="0" y="0" width="280" height="328"></rect>
        <rect id="path-9" x="0" y="0" width="280" height="328"></rect>
    </defs>
    <g id="Page-1" stroke="none" stroke-width="1" fill="none" fill-rule="evenodd">
        <g id="image-greety">
            <g id="Page-1">
                <g id="1280px-company-detail-search">
                    <g id="Group">
                        <g id="image-greety">
                            <g id="Combined-Shape-Clipped">
                                <mask id="mask-2" fill="white">
                                    <use xlink:href="#path-1"></use>
                                </mask>
                                <g id="path-1"></g>
                                <path d="M183.162009,101.735575 L178.117729,127.565708 C177.380665,131.30031 173.681437,133.720885 169.968301,133.043124 C166.199539,132.282372 163.738022,128.686088 164.461179,124.909991 L183.277179,28.681751 C183.805641,25.5142554 182.943414,22.1254501 180.787849,19.3314147 C178.590563,16.4682199 175.280727,14.4487686 171.70666,13.8539987 C168.160408,13.2592288 164.377738,14.1029721 161.34604,16.1224235 C158.328248,18.1418748 156.353472,21.1157244 155.78329,24.476866 L129.930412,137.095858 C128.748328,142.268973 124.186873,146.045071 118.846634,146.321708 C113.130909,146.33554 108.49992,143.002062 106.900629,138.091752 L75.7214188,41.9188397 C73.8161771,34.8645918 66.1117691,30.839521 58.8245674,32.789813 C51.5512725,34.7677688 46.9898179,42.2369724 48.8672458,49.125238 L75.8465807,134.232664 C75.8888363,134.366849 75.926824,134.501311 75.9606195,134.635908 L80.4323798,148.647822 C81.585356,152.299432 79.5711205,156.186185 75.9177139,157.348061 C72.2365247,158.482273 68.3608577,156.476654 67.1939901,152.838875 L62.6699049,138.662716 C62.6381105,138.574807 62.6079353,138.485911 62.5794232,138.396053 L61.8675603,136.14858 L41.4812312,72.2682989 C40.5227329,68.7273431 38.3001281,66.0577944 35.1606989,64.3703076 C31.9795958,62.6966528 28.1317113,62.2402014 24.6172175,63.2084315 C21.1443976,64.135166 18.0744247,66.4589183 16.1852107,69.612582 C14.3098879,72.7247502 13.768128,76.2380423 14.6710612,79.5161927 C14.6710612,79.5161927 43.8349403,167.498221 44.1761395,174.956017 C44.5173387,182.413812 44.1761395,243.797177 44.1761395,243.797177 C44.1761395,288.404921 90.8359539,311.355538 98.5188261,313.274602 C106.201698,315.193667 175.643212,313.274602 175.643212,313.274602 C199.702908,313.274602 222.998585,262.80215 240.001511,225.940247 C248.433518,207.682194 255.712549,191.886212 262.602623,182.231574 C266.700551,176.491353 268.520309,167.735787 262.838775,162.064725 C257.532306,156.780955 247.058281,156.490486 242.071312,161.428459 L208.787805,193.753513 C207.205181,195.289371 205.065033,195.918505 203.022966,195.646264 C202.966811,195.647737 202.910534,195.648477 202.854147,195.648477 C202.452496,195.648477 202.024069,195.606982 201.622418,195.52399 C197.994173,194.818566 195.584269,191.208451 196.267076,187.460017 L221.048923,50.5937765 C221.571069,47.3709535 220.740991,43.9129888 218.639019,41.0082985 C216.550436,38.0759445 213.364007,36.070325 209.963364,35.4755551 C206.509168,34.8254578 202.854147,35.6692011 199.948874,37.6194932 C197.097154,39.6112808 195.209395,42.5021393 194.660473,45.8217853 L183.240205,101.398193 C183.216632,101.511981 183.190543,101.624457 183.162009,101.735575 L183.162009,101.735575 Z M197.120673,23.630513 C196.550974,19.1194309 194.766235,14.7898779 191.871627,10.9631402 C187.518776,5.2367508 181.177241,1.4329897 174.029108,0.229618007 C166.880975,-0.890762536 159.579867,0.616910046 153.51647,4.69730832 C147.341818,8.83303402 143.281011,15.0850341 142.140647,21.7934855 L117.970501,127.040097 L89.0720175,37.97676 C85.2059066,23.7714413 69.9917869,15.4999898 55.2087802,19.4697332 C41.8047894,23.0477699 33.0796137,36.2728945 34.8376496,49.5628615 C30.3104259,48.5071823 25.554315,48.5802933 20.9777022,49.8330243 C13.9626059,51.7418208 8.0310294,56.223343 4.26649257,62.4615112 C0.432499343,68.8241661 -0.651020483,76.1273874 1.32154125,83.3476176 C1.32154125,83.3476176 29.0190532,161.428459 30.2709684,175.965742 C31.5228836,190.503026 30.2709684,243.741849 30.2709684,243.741849 C30.2709684,301.807991 84.589719,324.054727 94.6848329,326.608514 C104.779947,329.162301 175.615429,327.051133 175.615429,327.051133 C208.579436,327.051133 231.972351,276.371204 252.642576,231.708132 C260.449475,214.805601 267.811853,198.843636 273.951799,190.24022 C282.939457,177.625565 282.42548,162.023229 272.673801,152.285601 C261.949733,141.593574 242.696419,141.303105 232.333525,151.580176 L212.952376,170.39435 L234.196289,53.0835111 C235.361076,45.9739358 233.647367,38.809033 229.376481,32.8060064 C225.185925,26.9412984 219.080835,23.0545462 212.172443,21.8511745 C207.051297,20.9831544 201.847953,21.605105 197.120673,23.630513 L197.120673,23.630513 Z" id="Combined-Shape" fill="#02051C" mask="url(#mask-2)"></path>
                            </g>
                            <g id="mouth-Clipped">
                                <mask id="mask-4" fill="white">
                                    <use xlink:href="#path-3"></use>
                                </mask>
                                <g id="path-1"></g>
                                <g id="mouth" mask="url(#mask-4)">
                                    <g transform="translate(97.000000, 256.000000)">
                                        <path d="M1.42108547e-14,11.4691316 C3.31399134e-14,-2.01605479 68.2146834,-3.49638343 71.5851385,6.43095709 C74.171502,14.0488335 65.0415452,40 33.5441841,40 C2.04682301,40 1.11444103e-14,13.5301707 1.42108547e-14,11.4691316 L1.42108547e-14,11.4691316 Z" id="mouth" stroke="none" fill="#02051C" fill-rule="evenodd"></path>
                                        <mask id="mask-6" fill="white">
                                            <use xlink:href="#path-5"></use>
                                        </mask>
                                        <use id="tongue" stroke="none" fill="#FF9CE7" fill-rule="evenodd" xlink:href="#path-5"></use>
                                    </g>
                                </g>
                            </g>
                            <g id="eye-Clipped">
                                <mask id="mask-8" fill="white">
                                    <use xlink:href="#path-7"></use>
                                </mask>
                                <g id="path-1"></g>
                                <g id="eye" mask="url(#mask-8)">
                                    <g transform="translate(80.000000, 197.000000)" id="Oval">
                                        <g>
                                            <path d="M19.92669,39.8533801 C33.3654196,41.1283067 40.8333439,34.0556534 39.8533801,19.92669 C38.8734162,5.79772667 30.931897,0 19.92669,0 C8.92148301,0 0,8.92148301 0,19.92669 C0,30.931897 6.48796043,38.5784534 19.92669,39.8533801 L19.92669,39.8533801 Z" id="Shape" fill="#02051C"></path>
                                            <path d="M12,16 C14.3196785,16 16,14.3191175 16,12 C16,9.68088255 14.209139,8 12,8 C9.790861,8 8,9.790861 8,12 C8,14.209139 9.68032151,16 12,16 L12,16 Z" id="Shape" fill="#FFFFFF"></path>
                                        </g>
                                    </g>
                                </g>
                            </g>
                            <g id="eye-Clipped">
                                <mask id="mask-10" fill="white">
                                    <use xlink:href="#path-9"></use>
                                </mask>
                                <g id="path-1"></g>
                                <g id="eye" mask="url(#mask-10)">
                                    <g transform="translate(144.000000, 197.000000)" id="Oval">
                                        <g>
                                            <path d="M19.92669,39.8533801 C33.3654196,41.1283067 40.8333439,34.0556534 39.8533801,19.92669 C38.8734162,5.79772667 30.931897,0 19.92669,0 C8.92148301,0 0,8.92148301 0,19.92669 C0,30.931897 6.48796043,38.5784534 19.92669,39.8533801 L19.92669,39.8533801 Z" id="Shape" fill="#02051C"></path>
                                            <path d="M12,16 C14.3196785,16 16,14.3191175 16,12 C16,9.68088255 14.209139,8 12,8 C9.790861,8 8,9.790861 8,12 C8,14.209139 9.68032151,16 12,16 L12,16 Z" id="Shape" fill="#FFFFFF"></path>
                                        </g>
                                    </g>
                                </g>
                            </g>
                        </g>
                    </g>
                </g>
            </g>
        </g>
    </g>
</svg>