<?xml version="1.0" encoding="UTF-8"?>
<svg width="128px" height="48px" viewBox="0 0 128 48" version="1.1" xmlns="http://www.w3.org/2000/svg" xmlns:xlink="http://www.w3.org/1999/xlink">
    <!-- Generator: Sketch 47.1 (45422) - http://www.bohemiancoding.com/sketch -->
    <title>logo-caltech</title>
    <desc>Created with Sketch.</desc>
    <defs></defs>
    <g id="Page-1" stroke="none" stroke-width="1" fill="none" fill-rule="evenodd">
        <g id="logo-caltech" fill-rule="nonzero" fill="#F58427">
            <path d="M99.1604406,35.4292915 L103.031503,35.4292915 L103.031503,27.1788952 C103.031503,25.2111703 103.920247,22.7361489 106.840128,22.7361489 C108.807853,22.7361489 109.695622,23.6883054 109.695622,25.9096785 L109.695622,35.4292915 L113.566684,35.4292915 L113.566684,24.7994797 C113.566684,20.1343035 110.425349,18.9919109 107.696679,18.9919109 C105.506524,18.9919109 103.951465,19.8484614 103.094915,20.9596358 L103.031503,20.9596358 L103.031503,12.2009674 L99.1604406,12.2009674 L99.1604406,35.4292915 Z M97.954636,23.5614812 C96.9712613,21.149872 95.0669485,18.9919109 91.1636925,18.9919109 C85.9600016,18.9919109 82.94549,22.6093248 82.94549,27.4003496 C82.94549,32.1923499 85.9600016,35.8097638 90.8778505,35.8097638 C95.2259664,35.8097638 97.0658916,33.2401122 98.1448722,30.8909394 L94.8445185,29.1466201 C94.2416162,30.6060729 93.2582415,32.255762 90.9422381,32.255762 C88.2447868,32.255762 87.0067883,29.9085403 87.0067883,27.4003496 C87.0067883,24.89411 88.4028292,22.5459128 91.1636925,22.5459128 C92.6865575,22.5459128 94.05138,23.5292874 94.559652,25.11654 L97.954636,23.5614812 Z M69.7870005,25.3379944 L77.5925369,25.3379944 C77.5925369,24.4814438 76.5457502,22.1654404 73.9439047,22.1654404 C71.6913134,22.1654404 70.1996667,23.6248933 69.7870005,25.3379944 L69.7870005,25.3379944 Z M81.6548108,28.3212878 L69.7870005,28.3212878 C69.8504126,30.7016788 71.8493557,32.255762 73.9439047,32.255762 C76.9896346,32.255762 78.1954392,30.5104671 78.5768871,29.9719524 L81.8450469,31.8752896 C80.6392423,33.7161904 78.3222633,35.8097638 73.9439047,35.8097638 C68.7392382,35.8097638 65.7247266,32.1923499 65.7247266,27.4003496 C65.7247266,22.6093248 68.7392382,18.9919109 73.9439047,18.9919109 C79.3066136,18.9919109 81.6548108,22.577131 81.6548108,28.3212878 Z M58.194301,15.87594 L58.194301,31.7484655 C58.194301,34.1922686 59.2732816,35.6195277 62.4458355,35.6195277 C63.6526157,35.6195277 64.6037966,35.4292915 65.5247348,35.2390553 L65.5247348,32.0655258 C64.9530507,32.1289378 64.3501484,32.255762 63.8106581,32.255762 C62.3190114,32.255762 62.0653632,31.5582293 62.0653632,30.2890126 L62.0653632,22.1654404 L65.5247348,22.1654404 L65.5247348,19.3723832 L62.0653632,19.3723832 L62.0653632,12 L58.194301,15.87594 Z M51.7077355,35.4292915 L55.5787976,35.4292915 L55.5787976,12.2009674 L51.7077355,12.2009674 L51.7077355,35.4292915 Z M45.0650787,29.6861103 L45.0650787,27.4003496 C44.5577822,27.6549734 43.9226861,27.8452095 43.2241779,27.9720337 L41.0984106,28.4168936 C39.6389578,28.7017601 38.4331531,29.1144262 38.4331531,30.6372912 C38.4331531,31.8430958 39.5433519,32.6372099 40.9393927,32.6372099 C42.7490752,32.6372099 45.0650787,31.7484655 45.0650787,29.6861103 Z M48.9361408,24.2599894 L48.9361408,32.7318402 C48.9361408,34.3825048 49.3175887,35.0800374 49.5390431,35.4292915 L45.445551,35.4292915 C45.1919028,35.0488192 45.0650787,34.3825048 45.0650787,33.9698386 C43.573432,35.1756433 41.8281371,35.8097638 39.8291939,35.8097638 C36.7824885,35.8097638 34.3708792,33.8742328 34.3708792,30.7650908 C34.3708792,27.6237551 36.8780944,26.2267388 39.2575099,25.7506605 L40.8759807,25.4336003 C42.2720215,25.1477582 44.081704,24.8306979 45.0650787,24.4814438 L45.0650787,24.0053656 C45.0650787,22.4190887 43.7002561,21.9752043 42.0183732,21.9752043 C39.7657819,21.9752043 39.0360554,22.6415186 39.0360554,24.3868135 L35.1640177,24.2277956 C35.1640177,20.4513638 38.4965652,18.9919109 42.0183732,18.9919109 C45.4777448,18.9919109 48.9361408,19.6904191 48.9361408,24.2599894 L48.9361408,24.2599894 Z M33.7874883,19.3723832 C32.7085078,14.6447705 29.2491362,12.2643795 24.7117597,12.2643795 C17.95301,12.2643795 14,17.7539124 14,24.1321897 C14,30.5104671 17.4769318,36 24.7117597,36 C29.217918,36 32.2324296,33.8108207 34.0411365,29.2734442 L30.1700744,27.4959554 C29.3447421,30.1299947 27.6628592,32.0655258 24.7117597,32.0655258 C20.2056014,32.0655258 18.3334824,28.0676395 18.3334824,24.1321897 C18.3334824,20.1977155 20.2056014,16.1998293 24.7117597,16.1998293 C27.2823869,16.1998293 29.3447421,17.9129304 29.6939962,20.4201455 L33.7874883,19.3723832 Z" id="caltech"></path>
        </g>
    </g>
</svg>