<?xml version="1.0" encoding="UTF-8"?>
<svg width="128px" height="48px" viewBox="0 0 128 48" version="1.1" xmlns="http://www.w3.org/2000/svg" xmlns:xlink="http://www.w3.org/1999/xlink">
    <!-- Generator: Sketch 47.1 (45422) - http://www.bohemiancoding.com/sketch -->
    <title>logo-siemens</title>
    <desc>Created with Sketch.</desc>
    <defs></defs>
    <g id="Page-1" stroke="none" stroke-width="1" fill="none" fill-rule="evenodd">
        <g id="logo-siemens" fill="#009999">
            <path d="M125.232652,14.7017822 L125.232652,18.4453729 C123.293197,17.7132121 121.566455,17.3430218 120.055184,17.3430218 C119.160021,17.3430218 118.447192,17.5087842 117.911237,17.829265 C117.375219,18.1525082 117.101687,18.55038 117.101687,19.0200546 C117.101687,19.6444459 117.706746,20.1997332 118.925152,20.6970875 L122.444983,22.4100236 C125.290712,23.7665756 126.702497,25.5678904 126.702497,27.830638 C126.702497,29.7121134 125.953767,31.2123344 124.442497,32.3229635 C122.942274,33.4447217 120.922667,34 118.40853,34 C117.248119,34 116.206588,33.9502814 115.281047,33.8452797 C114.355506,33.7458607 113.291817,33.5413675 112.112075,33.2485119 L112.112075,29.3308773 C114.275353,30.0630253 116.245252,30.4332229 118.018943,30.4332229 C120.135272,30.4332229 121.187914,29.8198702 121.187914,28.5821443 C121.187914,27.9660364 120.756903,27.468742 119.881136,27.0791499 L115.971718,25.4131701 C114.529553,24.7611554 113.457581,23.9710035 112.755799,23.0344148 C112.065127,22.0895427 111.714203,21.0065226 111.714203,19.7687858 C111.714203,18.0364535 112.443603,16.6412378 113.885766,15.5803109 C115.339042,14.5276693 117.267515,14 119.665597,14 C120.444707,14 121.34263,14.0690423 122.337277,14.1961427 C123.340146,14.3315284 124.304351,14.4972926 125.232652,14.7017822 L125.232652,14.7017822 Z M14.5101626,14.7017822 L14.5101626,18.4453729 C12.5706436,17.7132121 10.8466618,17.3430218 9.33539316,17.3430218 C8.43746821,17.3430218 7.72746422,17.5087842 7.19144621,17.829265 C6.65549165,18.1525082 6.38195796,18.55038 6.38195796,19.0200546 C6.38195796,19.6444459 6.99530347,20.1997332 8.21370927,20.6970875 L11.733541,22.4100236 C14.5681592,23.7665756 15.9827693,25.5678904 15.9827693,27.830638 C15.9827693,29.7121134 15.2312776,31.2123344 13.7310547,32.3229635 C12.2197843,33.4447217 10.211223,34 7.68880227,34 C6.5283912,34 5.48403482,33.9502814 4.55849368,33.8452797 C3.63295254,33.7458607 2.58031094,33.5413675 1.39234711,33.2485119 L1.39234711,29.3308773 C3.56391025,30.0630253 5.53380777,30.4332229 7.29645335,30.4332229 C9.41278411,30.4332229 10.4654257,29.8198702 10.4654257,28.5821443 C10.4654257,27.9660364 10.0371754,27.468742 9.16962895,27.0791499 L5.26027589,25.4131701 C3.80700015,24.7611554 2.73502758,23.9710035 2.04435638,23.0344148 C1.34257417,22.0895427 1,21.0065226 1,19.7687858 C1,18.0364535 1.72387553,16.6412378 3.17432367,15.5803109 C4.61655184,14.5276693 6.54772217,14 8.94587002,14 C9.73326496,14 10.6201423,14.0690423 11.6257715,14.1961427 C12.6204184,14.3315284 13.5846233,14.4972926 14.5101626,14.7017822 Z M24.2767391,14.3508592 L24.2767391,33.6491403 L18.5438561,33.6491403 L18.5438561,14.3508592 L24.2767391,14.3508592 Z M42.9201853,33.6491403 L28.7110643,33.6491403 L28.7110643,14.3508592 L42.7461365,14.3508592 L42.7461365,17.9177025 L34.2283452,17.9177025 L34.2283452,22.1972465 L41.6161684,22.1972465 L41.6161684,25.4131664 L34.2283452,25.4131664 L34.2283452,29.9055508 L42.9201853,29.9055508 L42.9201853,33.6491403 Z M46.0891569,33.6491403 L46.0891569,14.3508592 L53.0873293,14.3508592 L57.8642287,26.1646588 L62.8621893,14.3508592 L69.5094383,14.3508592 L69.5094383,33.6491403 L64.1576,33.6491403 L64.1576,20.9208462 L58.6046744,33.8259507 L55.3003815,33.8259507 L49.9598468,20.9208462 L49.9598468,33.6491403 L46.0891569,33.6491403 Z M88.1448564,33.6491403 L73.9357997,33.6491403 L73.9357997,14.3508592 L87.9708077,14.3508592 L87.9708077,17.9177025 L79.4995792,17.9177025 L79.4995792,22.1972465 L86.8873382,22.1972465 L86.8873382,25.4131664 L79.4995792,25.4131664 L79.4995792,29.9055508 L88.1448564,29.9055508 L88.1448564,33.6491403 Z M108.086603,33.6491403 L102.005816,33.6491403 L95.1819489,21.2717054 L95.1819489,33.6491403 L91.3136996,33.6491403 L91.3136996,14.3508592 L97.5717473,14.3508592 L104.218996,26.5155822 L104.218996,14.3508592 L108.086603,14.3508592 L108.086603,33.6491403 Z" id="siemens"></path>
        </g>
    </g>
</svg>