<?xml version="1.0" encoding="UTF-8"?>
<svg width="128px" height="48px" viewBox="0 0 128 48" version="1.1" xmlns="http://www.w3.org/2000/svg" xmlns:xlink="http://www.w3.org/1999/xlink">
    <!-- Generator: Sketch 47.1 (45422) - http://www.bohemiancoding.com/sketch -->
    <title>logo-airfranceklm</title>
    <desc>Created with Sketch.</desc>
    <defs></defs>
    <g id="Page-1" stroke="none" stroke-width="1" fill="none" fill-rule="evenodd">
        <g id="logo-airfranceklm" fill-rule="nonzero">
            <g id="airfranceklm" transform="translate(0.000000, 18.000000)">
                <g id="g11" transform="translate(64.015426, 8.301641) scale(-1, 1) rotate(-180.000000) translate(-64.015426, -8.301641) translate(0.270406, 0.333514)">
                    <polygon id="path151" fill="#04A1E6" points="90.9957355 4.46548526 22.1377275 3.85927012 22.0395602 3.71138167 90.9957355 3.14341355"></polygon>
                    <polygon id="path155" fill="#0D224A" points="112.738014 3.70997928 112.830445 3.85786773 90.9958629 4.46535777 90.9958629 3.14328606"></polygon>
                    <path d="M91.0093131,0.0466804781 C91.0437355,0.193931474 91.5371219,2.36253705 91.5371219,3.81146135 C91.5371219,5.26166056 91.043098,7.43791554 91.0093131,7.58197928 L91.0093131,7.58644143 L91.0093131,7.58325418 C91.0086757,7.58771633 91.0086757,7.58962869 91.0086757,7.58962869 L91.0086757,7.57815458 C90.9748908,7.43472829 90.4776797,5.26293546 90.4776797,3.81146135 C90.4776797,2.3631745 90.9729785,0.189469323 91.0067633,0.0422183267 L91.0067633,0.0377561753 L91.0067633,0.0403059761 C91.0086757,0.0352063745 91.0093131,0.0339314741 91.0093131,0.0339314741 L91.0093131,0.0466804781 Z" id="path167" fill="#EF2E31"></path>
                    <polygon id="path171" fill="#04A1E6" points="124.809026 15.2812303 121.790062 12.0174853 118.790222 15.2895171 116.25317 15.2895171 116.25317 7.54640956 118.239465 7.54640956 118.239465 12.5319076 121.575879 9.05780398 124.926317 12.5822661 124.926317 7.54640956 127.335879 7.54640956 127.335879 15.2812303"></polygon>
                    <polygon id="path175" fill="#04A1E6" points="108.700086 15.2812303 106.289249 15.2812303 106.289249 7.54895936 114.37148 7.54895936 114.37148 9.26178805 108.700086 9.26178805"></polygon>
                    <polygon id="path179" fill="#04A1E6" points="104.357393 15.2812303 101.165042 15.2812303 97.052851 12.2437801 97.052851 15.2812303 94.6394645 15.2812303 94.6394645 7.54640956 97.052851 7.54640956 97.052851 10.7712701 100.878827 7.54640956 104.613648 7.54640956 99.5529307 11.7746167"></polygon>
                    <polygon id="path183" fill="#0D224A" points="87.3775681 13.9046566 87.3775681 15.281549 79.8939028 15.281549 79.8939028 7.54864064 87.366094 7.54864064 87.366094 8.92935777 81.9413928 8.92935777 81.9413928 10.8060112 87.2896 10.8060112 87.2896 12.1829036 81.9413928 12.1829036 81.9413928 13.9046566"></polygon>
                    <path d="M71.1469386,11.422298 C71.1469386,13.2116207 73.1561817,13.8375968 74.7121976,13.8375968 C75.8455841,13.8375968 77.3066199,13.4806247 78.1340303,13.0184733 L78.1340303,14.7644494 C77.2422375,15.0889116 75.7748271,15.3929753 74.5885323,15.3929753 C71.5682932,15.3929753 68.7373769,13.949788 68.7373769,11.4618199 C68.7373769,9.06883187 71.4968988,7.43377211 74.1996876,7.43377211 C75.7110821,7.43377211 77.1402454,7.72636175 78.2207235,8.22930996 L78.2207235,9.91281594 C77.2039904,9.38500717 75.9341896,9.02867251 74.5681339,9.02867251 C72.8145084,9.02867251 71.1469386,9.9606247 71.1469386,11.422298" id="path195" fill="#0D224A"></path>
                    <polygon id="path199" fill="#0D224A" points="65.6407076 10.4610231 59.8603092 15.2833339 58.3036558 15.2814215 58.3036558 7.544051 60.0438948 7.544051 60.0438948 12.4396685 65.8204685 7.544051 67.3809466 7.544051 67.3809466 15.2814215 65.6407076 15.2814215"></polygon>
                    <polygon id="path203" fill="#0D224A" points="27.5927713 7.54436972 29.6402614 7.54436972 29.6402614 10.1700271 35.0318151 10.1700271 35.0318151 11.5456446 29.6402614 11.5456446 29.6402614 13.9016606 35.1663171 13.9016606 35.1663171 15.2811028 27.5927713 15.2811028"></polygon>
                    <polygon id="path205" fill="#0D224A" points="12.124596 7.54456096 14.1714486 7.54456096 14.1714486 15.281294 12.124596 15.281294"></polygon>
                    <path d="M4.61339283,15.2812303 C3.05100239,12.7358916 1.55936892,10.1484813 0.0964207171,7.54449721 C0.0964207171,7.54322231 2.03363187,7.54449721 2.03363187,7.54449721 L3.02677928,9.30130996 L7.64383108,9.30130996 L8.6892494,7.54449721 L11.0981737,7.54449721 C9.58359203,10.1701546 7.98486693,12.7416287 6.33450837,15.2812303 L4.61339283,15.2812303 Z M3.77195857,10.6801147 L5.23873147,13.2528637 L6.77116175,10.6801147 L3.77195857,10.6801147 Z" id="path217" fill="#0D224A"></path>
                    <path d="M50.9292494,15.2812303 C49.3674964,12.7358916 47.8752255,10.1484813 46.4135522,7.54449721 C46.4135522,7.54322231 48.3501259,7.54449721 48.3501259,7.54449721 L49.3419984,9.30130996 L53.9603251,9.30130996 L55.005106,7.54449721 L57.4146677,7.54449721 C55.9000861,10.1701546 54.301361,12.7416287 52.6510024,15.2812303 L50.9292494,15.2812303 Z M50.0871777,10.6801147 L51.5539506,13.2528637 L53.0882932,10.6801147 L50.0871777,10.6801147 Z" id="path221" fill="#0D224A"></path>
                    <path d="M45.5062056,12.9092781 C45.5062056,14.4372462 44.1172016,15.2818677 42.4400701,15.2818677 L36.7890741,15.2818677 L36.7890741,7.54449721 L38.8384765,7.54449721 L38.8384765,10.2237004 L40.7552892,10.2237004 L43.2107474,7.54577211 L45.9281976,7.54449721 L43.1189546,10.561549 C44.4384765,10.8904733 45.5062056,11.7982024 45.5062056,12.9092781 M41.186843,11.6025052 L38.8384765,11.6025052 L38.8384765,13.901788 L41.6394327,13.901788 C42.4426199,13.901788 43.1782375,13.5256924 43.1782375,12.8040988 C43.1782375,12.0786805 42.4438948,11.6025052 41.186843,11.6025052" id="path225" fill="#0D224A"></path>
                    <path d="M25.5688032,12.9092781 C25.5688032,14.4372462 24.1804367,15.2818677 22.5033052,15.2818677 L16.8516717,15.2818677 L16.8516717,7.54449721 L18.9010741,7.54449721 L18.9010741,10.2237004 L20.8178869,10.2237004 L23.2746199,7.54577211 L25.9907952,7.54449721 L23.1821896,10.561549 C24.4991618,10.8904733 25.5688032,11.7982024 25.5688032,12.9092781 M21.2500781,11.6025052 L18.9010741,11.6025052 L18.9010741,13.901788 L21.7020303,13.901788 C22.505855,13.901788 23.2408351,13.5256924 23.2408351,12.8040988 C23.2408351,12.0786805 22.505855,11.6025052 21.2500781,11.6025052" id="path229" fill="#0D224A"></path>
                </g>
            </g>
        </g>
    </g>
</svg>