<?xml version="1.0" encoding="UTF-8"?>
<svg width="128px" height="48px" viewBox="0 0 128 48" version="1.1" xmlns="http://www.w3.org/2000/svg" xmlns:xlink="http://www.w3.org/1999/xlink">
    <!-- Generator: Sketch 47.1 (45422) - http://www.bohemiancoding.com/sketch -->
    <title>logo-linksys</title>
    <desc>Created with Sketch.</desc>
    <defs></defs>
    <g id="Page-1" stroke="none" stroke-width="1" fill="none" fill-rule="evenodd">
        <g id="logo-linksys" fill-rule="nonzero" fill="#231F20">
            <path d="M86.9020979,31 L86.9020979,26.5375 L80.6958042,17 L84.8041958,17 L88.8251748,23.3875 L92.8461538,17 L96.6923077,17 L90.3986014,26.45 L90.3986014,31 L86.9020979,31 Z M52.8986014,24 L60.5034965,17 L65.2237762,17 L57.6188811,24 L65.2237762,31 L60.5034965,31 L52.8986014,24 Z M30.0839161,17 L33.6678322,17 L33.6678322,31 L30.0839161,31 L30.0839161,17 Z M66.0104895,31 L66.0104895,28.2 L77.0244755,28.2 L77.0244755,25.3125 L68.6328671,25.3125 C66.534965,25.3125 65.3986014,24 65.3986014,22.075 L65.3986014,20.325 C65.3986014,18.1375 66.6223776,17 68.6328671,17 L79.6468531,17 L79.6468531,19.8 L68.8076923,19.8 L68.8076923,22.425 L77.1993007,22.425 C79.3846154,22.425 80.4335664,23.7375 80.4335664,25.75 L80.4335664,27.675 C80.4335664,29.95 79.1223776,31 77.1993007,31 L66.0104895,31 Z M96.9545455,31 L96.9545455,28.2 L108.493007,28.2 L108.493007,25.3125 L100.101399,25.3125 C98.0034965,25.3125 96.8671329,24 96.8671329,22.075 L96.8671329,20.325 C96.8671329,18.1375 98.0909091,17 100.101399,17 L111.202797,17 L111.202797,19.8 L100.363636,19.8 L100.363636,22.425 L108.755245,22.425 C110.940559,22.425 111.98951,23.7375 111.98951,25.75 L111.98951,27.675 C111.98951,29.95 110.678322,31 108.755245,31 L96.9545455,31 Z M14,31 L14,17 L17.5839161,17 L17.5839161,28.2 L27.8986014,28.2 L27.8986014,31 L14,31 Z M36.3776224,31 L36.3776224,17 L40.3111888,17 L49.1398601,25.4 L49.1398601,17 L52.3741259,17 L52.3741259,31 L50.1888112,31 L39.6118881,21.025 L39.6118881,31 L36.3776224,31 Z M112.776224,17.175 L112.426573,17.175 L112.426573,18.05 L112.251748,18.05 L112.251748,17.175 L111.902098,17.175 L111.902098,17 L112.688811,17 L112.688811,17.175 L112.776224,17.175 Z M114,17 L114,17.9625 L113.825175,17.9625 L113.825175,17.2625 L113.475524,17.9625 L113.388112,17.9625 L113.038462,17.2625 L113.038462,18.05 L112.863636,18.05 L112.863636,17 L113.038462,17 L113.475524,17.7875 L113.825175,17 L114,17 Z" id="linksys"></path>
        </g>
    </g>
</svg>