<?xml version="1.0" encoding="UTF-8"?>
<svg width="160px" height="48px" viewBox="0 0 160 48" version="1.1" xmlns="http://www.w3.org/2000/svg" xmlns:xlink="http://www.w3.org/1999/xlink">
    <!-- Generator: Sketch 47.1 (45422) - http://www.bohemiancoding.com/sketch -->
    <title>logo-siemens</title>
    <desc>Created with Sketch.</desc>
    <defs></defs>
    <g id="Page-1" stroke="none" stroke-width="1" fill="none" fill-rule="evenodd">
        <g id="logo-siemens" fill="#009999">
            <path d="M141.232652,14.7017822 L141.232652,18.4453729 C139.293197,17.7132121 137.566455,17.3430218 136.055184,17.3430218 C135.160021,17.3430218 134.447192,17.5087842 133.911237,17.829265 C133.375219,18.1525082 133.101687,18.55038 133.101687,19.0200546 C133.101687,19.6444459 133.706746,20.1997332 134.925152,20.6970875 L138.444983,22.4100236 C141.290712,23.7665756 142.702497,25.5678904 142.702497,27.830638 C142.702497,29.7121134 141.953767,31.2123344 140.442497,32.3229635 C138.942274,33.4447217 136.922667,34 134.40853,34 C133.248119,34 132.206588,33.9502814 131.281047,33.8452797 C130.355506,33.7458607 129.291817,33.5413675 128.112075,33.2485119 L128.112075,29.3308773 C130.275353,30.0630253 132.245252,30.4332229 134.018943,30.4332229 C136.135272,30.4332229 137.187914,29.8198702 137.187914,28.5821443 C137.187914,27.9660364 136.756903,27.468742 135.881136,27.0791499 L131.971718,25.4131701 C130.529553,24.7611554 129.457581,23.9710035 128.755799,23.0344148 C128.065127,22.0895427 127.714203,21.0065226 127.714203,19.7687858 C127.714203,18.0364535 128.443603,16.6412378 129.885766,15.5803109 C131.339042,14.5276693 133.267515,14 135.665597,14 C136.444707,14 137.34263,14.0690423 138.337277,14.1961427 C139.340146,14.3315284 140.304351,14.4972926 141.232652,14.7017822 L141.232652,14.7017822 Z M30.5101626,14.7017822 L30.5101626,18.4453729 C28.5706436,17.7132121 26.8466618,17.3430218 25.3353932,17.3430218 C24.4374682,17.3430218 23.7274642,17.5087842 23.1914462,17.829265 C22.6554916,18.1525082 22.381958,18.55038 22.381958,19.0200546 C22.381958,19.6444459 22.9953035,20.1997332 24.2137093,20.6970875 L27.733541,22.4100236 C30.5681592,23.7665756 31.9827693,25.5678904 31.9827693,27.830638 C31.9827693,29.7121134 31.2312776,31.2123344 29.7310547,32.3229635 C28.2197843,33.4447217 26.211223,34 23.6888023,34 C22.5283912,34 21.4840348,33.9502814 20.5584937,33.8452797 C19.6329525,33.7458607 18.5803109,33.5413675 17.3923471,33.2485119 L17.3923471,29.3308773 C19.5639102,30.0630253 21.5338078,30.4332229 23.2964534,30.4332229 C25.4127841,30.4332229 26.4654257,29.8198702 26.4654257,28.5821443 C26.4654257,27.9660364 26.0371754,27.468742 25.169629,27.0791499 L21.2602759,25.4131701 C19.8070001,24.7611554 18.7350276,23.9710035 18.0443564,23.0344148 C17.3425742,22.0895427 17,21.0065226 17,19.7687858 C17,18.0364535 17.7238755,16.6412378 19.1743237,15.5803109 C20.6165518,14.5276693 22.5477222,14 24.94587,14 C25.733265,14 26.6201423,14.0690423 27.6257715,14.1961427 C28.6204184,14.3315284 29.5846233,14.4972926 30.5101626,14.7017822 Z M40.2767391,14.3508592 L40.2767391,33.6491403 L34.5438561,33.6491403 L34.5438561,14.3508592 L40.2767391,14.3508592 Z M58.9201853,33.6491403 L44.7110643,33.6491403 L44.7110643,14.3508592 L58.7461365,14.3508592 L58.7461365,17.9177025 L50.2283452,17.9177025 L50.2283452,22.1972465 L57.6161684,22.1972465 L57.6161684,25.4131664 L50.2283452,25.4131664 L50.2283452,29.9055508 L58.9201853,29.9055508 L58.9201853,33.6491403 Z M62.0891569,33.6491403 L62.0891569,14.3508592 L69.0873293,14.3508592 L73.8642287,26.1646588 L78.8621893,14.3508592 L85.5094383,14.3508592 L85.5094383,33.6491403 L80.1576,33.6491403 L80.1576,20.9208462 L74.6046744,33.8259507 L71.3003815,33.8259507 L65.9598468,20.9208462 L65.9598468,33.6491403 L62.0891569,33.6491403 Z M104.144856,33.6491403 L89.9357997,33.6491403 L89.9357997,14.3508592 L103.970808,14.3508592 L103.970808,17.9177025 L95.4995792,17.9177025 L95.4995792,22.1972465 L102.887338,22.1972465 L102.887338,25.4131664 L95.4995792,25.4131664 L95.4995792,29.9055508 L104.144856,29.9055508 L104.144856,33.6491403 Z M124.086603,33.6491403 L118.005816,33.6491403 L111.181949,21.2717054 L111.181949,33.6491403 L107.3137,33.6491403 L107.3137,14.3508592 L113.571747,14.3508592 L120.218996,26.5155822 L120.218996,14.3508592 L124.086603,14.3508592 L124.086603,33.6491403 Z" id="siemens"></path>
        </g>
    </g>
</svg>