<?xml version="1.0" encoding="UTF-8"?>
<svg width="192px" height="48px" viewBox="0 0 192 48" version="1.1" xmlns="http://www.w3.org/2000/svg" xmlns:xlink="http://www.w3.org/1999/xlink">
    <!-- Generator: Sketch 47.1 (45422) - http://www.bohemiancoding.com/sketch -->
    <title>logo-airfranceklm</title>
    <desc>Created with Sketch.</desc>
    <defs></defs>
    <g id="Page-1" stroke="none" stroke-width="1" fill="none" fill-rule="evenodd">
        <g id="logo-airfranceklm" fill-rule="nonzero">
            <g id="airfranceklm" transform="translate(2.000000, 12.000000)">
                <g id="g11" transform="translate(94.147688, 12.209250) scale(-1, 1) rotate(-180.000000) translate(-94.147688, -12.209250) translate(0.397688, 0.490500)">
                    <polygon id="path151" fill="#04A1E6" points="133.827712 6.56740312 32.558025 5.67584062 32.41365 5.45834062 133.827712 4.62302813"></polygon>
                    <polygon id="path155" fill="#0D224A" points="165.80415 5.45627812 165.940088 5.67377812 133.8279 6.56721563 133.8279 4.62284062"></polygon>
                    <path d="M133.847681,0.068653125 C133.898306,0.285215625 134.623931,3.47459063 134.623931,5.60552813 C134.623931,7.73834063 133.897369,10.9389656 133.847681,11.1508406 L133.847681,11.1574031 L133.847681,11.1527156 C133.846744,11.1592781 133.846744,11.1620906 133.846744,11.1620906 L133.846744,11.1452156 C133.797056,10.9342781 133.065806,7.74021562 133.065806,5.60552813 C133.065806,3.47552812 133.794244,0.278653125 133.843931,0.062090625 L133.843931,0.055528125 L133.843931,0.059278125 C133.846744,0.051778125 133.847681,0.049903125 133.847681,0.049903125 L133.847681,0.068653125 Z" id="path167" fill="#EF2E31"></path>
                    <polygon id="path171" fill="#04A1E6" points="183.557025 22.4741531 179.117025 17.6741531 174.70515 22.4863406 170.9739 22.4863406 170.9739 11.0985281 173.89515 11.0985281 173.89515 18.4307156 178.802025 13.3213406 183.729525 18.5047781 183.729525 11.0985281 187.273275 11.0985281 187.273275 22.4741531"></polygon>
                    <polygon id="path175" fill="#04A1E6" points="159.865556 22.4741531 156.319931 22.4741531 156.319931 11.1022781 168.206494 11.1022781 168.206494 13.6213406 159.865556 13.6213406"></polygon>
                    <polygon id="path179" fill="#04A1E6" points="153.478744 22.4741531 148.783744 22.4741531 142.735931 18.0069656 142.735931 22.4741531 139.186556 22.4741531 139.186556 11.0985281 142.735931 11.0985281 142.735931 15.8413406 148.362806 11.0985281 153.855619 11.0985281 146.412806 17.3169656"></polygon>
                    <polygon id="path183" fill="#0D224A" points="128.506463 20.4496219 128.506463 22.4746219 117.500213 22.4746219 117.500213 11.1018094 128.489588 11.1018094 128.489588 13.1324344 120.511463 13.1324344 120.511463 15.8924344 128.377088 15.8924344 128.377088 17.9174344 120.511463 17.9174344 120.511463 20.4496219"></polygon>
                    <path d="M104.636025,16.7988094 C104.636025,19.4303719 107.591025,20.3509969 109.879463,20.3509969 C111.546338,20.3509969 113.695088,19.8259969 114.911963,19.1463094 L114.911963,21.7141219 C113.6004,22.1913094 111.442275,22.6384969 109.697588,22.6384969 C105.255713,22.6384969 101.092275,20.5159969 101.092275,16.8569344 C101.092275,13.3375594 105.150713,10.9328719 109.125713,10.9328719 C111.348525,10.9328719 113.4504,11.3631844 115.039463,12.1028719 L115.039463,14.5788094 C113.54415,13.8025594 111.67665,13.2784969 109.667588,13.2784969 C107.088525,13.2784969 104.636025,14.6491219 104.636025,16.7988094" id="path195" fill="#0D224A"></path>
                    <polygon id="path199" fill="#0D224A" points="96.5379937 15.3850594 88.0367437 22.4772469 85.7473687 22.4744344 85.7473687 11.0950594 88.3067437 11.0950594 88.3067437 18.2950594 96.8023687 11.0950594 99.0973688 11.0950594 99.0973688 22.4744344 96.5379937 22.4744344"></polygon>
                    <polygon id="path203" fill="#0D224A" points="40.580775 11.0955281 43.592025 11.0955281 43.592025 14.9570906 51.5214 14.9570906 51.5214 16.9802156 43.592025 16.9802156 43.592025 20.4452156 51.7192125 20.4452156 51.7192125 22.4739656 40.580775 22.4739656"></polygon>
                    <polygon id="path205" fill="#0D224A" points="17.8316813 11.0958094 20.8419938 11.0958094 20.8419938 22.4742469 17.8316813 22.4742469"></polygon>
                    <path d="M6.78493125,22.4741531 C4.48711875,18.7307156 2.29336875,14.9254031 0.14180625,11.0957156 C0.14180625,11.0938406 2.99086875,11.0957156 2.99086875,11.0957156 L4.45149375,13.6794656 L11.2418063,13.6794656 L12.7793063,11.0957156 L16.3221188,11.0957156 C14.0946188,14.9572781 11.7433687,18.7391531 9.31618125,22.4741531 L6.78493125,22.4741531 Z M5.54743125,15.7072781 L7.70461875,19.4910281 L9.95836875,15.7072781 L5.54743125,15.7072781 Z" id="path217" fill="#0D224A"></path>
                    <path d="M74.9018063,22.4741531 C72.6049313,18.7307156 70.4102438,14.9254031 68.2605563,11.0957156 C68.2605563,11.0938406 71.1086813,11.0957156 71.1086813,11.0957156 L72.5674312,13.6794656 L79.3596188,13.6794656 L80.8961813,11.0957156 L84.4399313,11.0957156 C82.2124313,14.9572781 79.8611813,18.7391531 77.4339937,22.4741531 L74.9018063,22.4741531 Z M73.6633687,15.7072781 L75.8205563,19.4910281 L78.0771188,15.7072781 L73.6633687,15.7072781 Z" id="path221" fill="#0D224A"></path>
                    <path d="M66.9261187,18.9857156 C66.9261187,21.2329031 64.8833063,22.4750906 62.4167437,22.4750906 L54.1058062,22.4750906 L54.1058062,11.0957156 L57.1198688,11.0957156 L57.1198688,15.0360281 L59.9389313,15.0360281 L63.5501812,11.0975906 L67.5467438,11.0957156 L63.4151812,15.5329031 C65.3558062,16.0166531 66.9261187,17.3516531 66.9261187,18.9857156 M60.5736187,17.0638406 L57.1198688,17.0638406 L57.1198688,20.4454031 L61.2392438,20.4454031 C62.4204938,20.4454031 63.5023688,19.8922781 63.5023688,18.8310281 C63.5023688,17.7641531 62.4223688,17.0638406 60.5736187,17.0638406" id="path225" fill="#0D224A"></path>
                    <path d="M37.6041188,18.9857156 C37.6041188,21.2329031 35.5622438,22.4750906 33.0956812,22.4750906 L24.7838063,22.4750906 L24.7838063,11.0957156 L27.7978687,11.0957156 L27.7978687,15.0360281 L30.6169312,15.0360281 L34.2300563,11.0975906 L38.2247437,11.0957156 L34.0941187,15.5329031 C36.0309938,16.0166531 37.6041188,17.3516531 37.6041188,18.9857156 M31.2525562,17.0638406 L27.7978687,17.0638406 L27.7978687,20.4454031 L31.9172437,20.4454031 C33.0994313,20.4454031 34.1803688,19.8922781 34.1803688,18.8310281 C34.1803688,17.7641531 33.0994313,17.0638406 31.2525562,17.0638406" id="path229" fill="#0D224A"></path>
                </g>
            </g>
        </g>
    </g>
</svg>