<?xml version="1.0" encoding="UTF-8"?>
<svg width="128px" height="48px" viewBox="0 0 128 48" version="1.1" xmlns="http://www.w3.org/2000/svg" xmlns:xlink="http://www.w3.org/1999/xlink">
    <!-- Generator: Sketch 47.1 (45422) - http://www.bohemiancoding.com/sketch -->
    <title>logo-deloitte</title>
    <desc>Created with Sketch.</desc>
    <defs></defs>
    <g id="Page-1" stroke="none" stroke-width="1" fill="none" fill-rule="evenodd">
        <g id="logo-deloitte" fill-rule="nonzero">
            <g id="deloitte" transform="translate(11.000000, 14.000000)">
                <path d="M101.00386,17.1490622 C101.00386,15.5873741 102.270787,14.3203442 103.83045,14.3203442 C105.390963,14.3203442 106.656254,15.5873741 106.656254,17.1490622 C106.656254,18.7107503 105.390963,19.9769617 103.83045,19.9769617 C102.270787,19.9769617 101.00386,18.7107503 101.00386,17.1490622" id="path3356" fill="#86BC24"></path>
                <path d="M10.8587503,9.6577853 C10.8587503,7.86610019 10.5128202,6.53686465 9.82089463,5.67089715 C9.12811846,4.80574815 8.07874709,4.3735829 6.66793867,4.3735829 L5.16716356,4.3735829 L5.16716356,15.3299542 L6.31546556,15.3299542 C7.88252158,15.3299542 9.03082359,14.8650492 9.76200734,13.9319651 C10.4923405,13.000518 10.8587503,11.5755186 10.8587503,9.6577853 M16.2109499,9.47116849 C16.2109499,12.7353257 15.3341837,15.2505602 13.5806513,17.0160535 C11.8271189,18.7823653 9.36203184,19.6655212 6.18453951,19.6655212 L0.0104042365,19.6655212 L0.0104042365,0.10595104 L6.61559441,0.10595104 C9.67936886,0.10595104 12.0446747,0.908894434 13.7115119,2.51396273 C15.377564,4.11984952 16.2109499,6.43782678 16.2109499,9.47116849 Z M33.3134525,19.6652789 L33.3134525,0.0238592859 L38.2264185,0.0238592859 L38.2264185,19.6652789 L33.3134525,19.6652789 Z M54.3498218,12.338932 C54.3498218,14.7248443 53.7249623,16.5861015 52.4719718,17.920248 C51.2198319,19.255213 49.4670847,19.9231047 47.2138609,19.9231047 C45.0530248,19.9231047 43.3329927,19.2404801 42.0563165,17.8752308 C40.7780044,16.5099814 40.1392083,14.6650942 40.1392083,12.338932 C40.1392083,9.9603861 40.7649184,8.11222485 42.0179089,6.79444823 C43.2708339,5.47667161 45.0276379,4.8177833 47.289891,4.8177833 C48.6876788,4.8177833 49.9243117,5.12308186 50.9957331,5.73286048 C52.0679396,6.3426391 52.8956985,7.21597305 53.4771777,8.35368082 C54.0595075,9.48975159 54.3498218,10.8189871 54.3498218,12.338932 Z M45.1282697,12.338932 C45.1282697,13.591229 45.2918455,14.5464124 45.6182119,15.2028453 C45.9453635,15.8600966 46.4932769,16.188313 47.2637188,16.188313 C48.025982,16.188313 48.5649969,15.8600966 48.8790624,15.2028453 C49.1931279,14.5464124 49.3493101,13.591229 49.3493101,12.338932 C49.3493101,11.0931829 49.1906416,10.1535509 48.8725194,9.5192174 C48.5535466,8.88324695 48.0096244,8.56485247 47.2383973,8.56485247 C46.4843129,8.56485247 45.9453635,8.88160996 45.6182119,9.51185095 C45.2918455,10.1429104 45.1282697,11.0849979 45.1282697,12.338932 Z M56.3009538,19.6653575 L56.3009538,5.07568774 L61.2147704,5.07568774 L61.2147704,12.1483013 L61.2147704,19.6653575 L56.3009538,19.6653575 Z M56.3007575,3.31093438 L56.3007575,0.0230407911 L61.2145741,0.0230407911 L61.2145741,3.31093438 L56.3007575,3.31093438 Z M71.1698617,15.9440741 C71.8331943,15.9440741 72.6232653,15.7754642 73.5449821,15.4406998 L73.5449821,19.111649 C72.8825002,19.4030332 72.2527334,19.6117493 71.6540461,19.735342 C71.0553587,19.8605717 70.352768,19.9227773 69.5488257,19.9227773 C67.8991312,19.9227773 66.7100007,19.5078005 65.9796021,18.6794838 C65.2525405,17.851167 64.8877665,16.5792261 64.8877665,14.8628425 L64.8877665,8.84854277 L63.1669492,8.84854277 L63.1669492,5.07691875 L64.8877665,5.07691875 L64.8877665,1.35113045 L69.8392054,0.489255426 L69.8392054,5.07691875 L72.9741026,5.07691875 L72.9741026,8.84854277 L69.8392054,8.84854277 L69.8392054,14.5272597 C69.8392054,15.4718027 70.283281,15.9440741 71.1698617,15.9440741 Z M82.5422391,15.9440741 C83.2055717,15.9440741 83.9956427,15.7754642 84.9173595,15.4406998 L84.9173595,19.111649 C84.2557282,19.4030332 83.6251108,19.6117493 83.0264235,19.735342 C82.4269509,19.8605717 81.7268466,19.9227773 80.9212031,19.9227773 C79.2715741,19.9227773 78.0823781,19.5078005 77.3536153,18.6794838 C76.6249179,17.851167 76.2601439,16.5792261 76.2601439,14.8628425 L76.2601439,8.84854277 L74.538476,8.84854277 L74.538476,5.07691875 L76.2601439,5.07691875 L76.2601439,1.2946543 L81.2107323,0.489255426 L81.2107323,5.07691875 L84.3473306,5.07691875 L84.3473306,8.84854277 L81.2107323,8.84854277 L81.2107323,14.5272597 C81.2107323,15.4718027 81.6548732,15.9440741 82.5422391,15.9440741 Z M98.0464754,6.53784684 C99.2151917,7.68292106 99.7992227,9.33382506 99.7992227,11.4889219 L99.7992227,13.7291421 L91.0168388,13.7291421 C91.0503391,14.5443629 91.3423546,15.1844259 91.8903335,15.6485124 C92.4383124,16.1117805 93.1858537,16.3434145 94.1328921,16.3434145 C94.9966377,16.3434145 95.7899802,16.2591095 96.5129852,16.0913181 C97.0135271,15.9759103 97.5435126,15.8007524 98.1004555,15.5732109 L98.8553904,18.8611045 C98.0890052,19.2605299 97.2989341,19.5371812 96.4826909,19.6902397 C95.6615405,19.8449352 94.6817216,19.9226922 93.5432341,19.9226922 C91.1721704,19.9226922 89.3311576,19.2760813 88.0201305,17.9844965 C86.7098884,16.6929118 86.0530989,14.8529355 86.0530989,12.4670231 C86.0530989,10.0033538 86.6607503,8.11263082 87.8753332,6.7948542 C89.0907012,5.47707758 90.8246046,4.81818927 93.0778937,4.81818927 C95.2215216,4.81818927 96.8785443,5.39195413 98.0464754,6.53784684 Z M29.6616558,6.53784684 L29.6616558,6.53784684 C30.8295869,7.68292106 31.4136179,9.33382506 31.4136179,11.4889219 L31.4136179,13.7291421 L22.631234,13.7291421 C22.6647344,14.5443629 22.9558993,15.1844259 23.5047287,15.6485124 C24.0527076,16.1117805 24.8010341,16.3434145 25.7472873,16.3434145 C26.6110329,16.3434145 27.4035248,16.2591095 28.1281656,16.0913181 C28.6278569,15.9759103 29.1578424,15.8007524 29.7148507,15.5732109 L30.4705708,18.8611045 C29.7034004,19.2605299 28.9133293,19.5371812 28.0970862,19.6902397 C27.2759357,19.8449352 26.2961168,19.9226922 25.1576293,19.9226922 C22.7865656,19.9226922 20.9455529,19.2760813 19.6353108,17.9844965 C18.323433,16.6929118 17.6674941,14.8529355 17.6674941,12.4670231 C17.6674941,10.0033538 18.2759961,8.11263082 19.4905136,6.7948542 C20.7050965,5.47707758 22.4381492,4.81818927 24.6922889,4.81818927 C26.836702,4.81818927 28.4929396,5.39195413 29.6616558,6.53784684 Z M22.7318004,10.5615673 L22.7318004,10.5615673 L26.9536914,10.5615673 C26.9364833,9.85766173 26.7426787,9.2953558 26.3689407,8.87546797 C25.9967731,8.45312466 25.4962312,8.24358999 24.8681002,8.24358999 C24.2898271,8.24358999 23.8064933,8.43020681 23.4163324,8.80344043 C23.0270874,9.17749255 22.7988665,9.76271633 22.7318004,10.5615673 Z M91.1174052,10.5615673 L91.1174052,10.5615673 L95.338511,10.5615673 C95.3229386,9.85766173 95.1282835,9.2953558 94.7545455,8.87546797 C94.3832285,8.45312466 93.8826866,8.24358999 93.2529198,8.24358999 C92.6754973,8.24358999 92.1929487,8.43020681 91.8019372,8.80344043 C91.4126922,9.17749255 91.1844713,9.76271633 91.1174052,10.5615673 Z" id="Combined-Shape" fill="#0F0B0B"></path>
            </g>
        </g>
    </g>
</svg>